<mxfile host="Electron" modified="2023-10-04T09:21:02.609Z" agent="Mozilla/5.0 (Windows NT 10.0; Win64; x64) AppleWebKit/537.36 (KHTML, like Gecko) draw.io/22.0.2 Chrome/114.0.5735.289 Electron/25.8.4 Safari/537.36" etag="O25cO4sPMmv5hWgl9JG-" version="22.0.2" type="device">
  <diagram id="6a731a19-8d31-9384-78a2-239565b7b9f0" name="Page-1">
    <mxGraphModel dx="2441" dy="1963" grid="1" gridSize="10" guides="1" tooltips="1" connect="1" arrows="1" fold="1" page="1" pageScale="1" pageWidth="827" pageHeight="1169" background="none" math="0" shadow="0">
      <root>
        <mxCell id="0" />
        <mxCell id="1" parent="0" />
        <object label="NAT translation table" id="Jf1T5h9fYw6Bt_OMcPzL-2282">
          <mxCell style="shape=table;startSize=30;container=1;collapsible=0;childLayout=tableLayout;strokeColor=default;fontSize=16;" vertex="1" parent="1">
            <mxGeometry x="120" y="1200" width="420" height="210" as="geometry" />
          </mxCell>
        </object>
        <mxCell id="Jf1T5h9fYw6Bt_OMcPzL-2283" value="" style="shape=tableRow;horizontal=0;startSize=0;swimlaneHead=0;swimlaneBody=0;strokeColor=inherit;top=0;left=0;bottom=0;right=0;collapsible=0;dropTarget=0;fillColor=none;points=[[0,0.5],[1,0.5]];portConstraint=eastwest;fontSize=16;" vertex="1" parent="Jf1T5h9fYw6Bt_OMcPzL-2282">
          <mxGeometry y="30" width="420" height="46" as="geometry" />
        </mxCell>
        <mxCell id="Jf1T5h9fYw6Bt_OMcPzL-2284" value="&lt;b&gt;Private IP&lt;/b&gt;" style="shape=partialRectangle;html=1;whiteSpace=wrap;connectable=0;strokeColor=inherit;overflow=hidden;fillColor=none;top=0;left=0;bottom=0;right=0;pointerEvents=1;fontSize=16;" vertex="1" parent="Jf1T5h9fYw6Bt_OMcPzL-2283">
          <mxGeometry width="210" height="46" as="geometry">
            <mxRectangle width="210" height="46" as="alternateBounds" />
          </mxGeometry>
        </mxCell>
        <mxCell id="Jf1T5h9fYw6Bt_OMcPzL-2285" value="&lt;b&gt;Public IP&lt;/b&gt;" style="shape=partialRectangle;html=1;whiteSpace=wrap;connectable=0;strokeColor=inherit;overflow=hidden;fillColor=none;top=0;left=0;bottom=0;right=0;pointerEvents=1;fontSize=16;" vertex="1" parent="Jf1T5h9fYw6Bt_OMcPzL-2283">
          <mxGeometry x="210" width="210" height="46" as="geometry">
            <mxRectangle width="210" height="46" as="alternateBounds" />
          </mxGeometry>
        </mxCell>
        <mxCell id="Jf1T5h9fYw6Bt_OMcPzL-2287" value="" style="shape=tableRow;horizontal=0;startSize=0;swimlaneHead=0;swimlaneBody=0;strokeColor=inherit;top=0;left=0;bottom=0;right=0;collapsible=0;dropTarget=0;fillColor=none;points=[[0,0.5],[1,0.5]];portConstraint=eastwest;fontSize=16;" vertex="1" parent="Jf1T5h9fYw6Bt_OMcPzL-2282">
          <mxGeometry y="76" width="420" height="43" as="geometry" />
        </mxCell>
        <mxCell id="Jf1T5h9fYw6Bt_OMcPzL-2288" value="192.168.1.3" style="shape=partialRectangle;html=1;whiteSpace=wrap;connectable=0;strokeColor=inherit;overflow=hidden;fillColor=none;top=0;left=0;bottom=0;right=0;pointerEvents=1;fontSize=16;" vertex="1" parent="Jf1T5h9fYw6Bt_OMcPzL-2287">
          <mxGeometry width="210" height="43" as="geometry">
            <mxRectangle width="210" height="43" as="alternateBounds" />
          </mxGeometry>
        </mxCell>
        <mxCell id="Jf1T5h9fYw6Bt_OMcPzL-2289" value="50.50.50.1" style="shape=partialRectangle;html=1;whiteSpace=wrap;connectable=0;strokeColor=inherit;overflow=hidden;fillColor=none;top=0;left=0;bottom=0;right=0;pointerEvents=1;fontSize=16;" vertex="1" parent="Jf1T5h9fYw6Bt_OMcPzL-2287">
          <mxGeometry x="210" width="210" height="43" as="geometry">
            <mxRectangle width="210" height="43" as="alternateBounds" />
          </mxGeometry>
        </mxCell>
        <mxCell id="Jf1T5h9fYw6Bt_OMcPzL-2291" value="" style="shape=tableRow;horizontal=0;startSize=0;swimlaneHead=0;swimlaneBody=0;strokeColor=inherit;top=0;left=0;bottom=0;right=0;collapsible=0;dropTarget=0;fillColor=none;points=[[0,0.5],[1,0.5]];portConstraint=eastwest;fontSize=16;" vertex="1" parent="Jf1T5h9fYw6Bt_OMcPzL-2282">
          <mxGeometry y="119" width="420" height="45" as="geometry" />
        </mxCell>
        <mxCell id="Jf1T5h9fYw6Bt_OMcPzL-2292" value="192.168.1.4" style="shape=partialRectangle;html=1;whiteSpace=wrap;connectable=0;strokeColor=inherit;overflow=hidden;fillColor=none;top=0;left=0;bottom=0;right=0;pointerEvents=1;fontSize=16;" vertex="1" parent="Jf1T5h9fYw6Bt_OMcPzL-2291">
          <mxGeometry width="210" height="45" as="geometry">
            <mxRectangle width="210" height="45" as="alternateBounds" />
          </mxGeometry>
        </mxCell>
        <mxCell id="Jf1T5h9fYw6Bt_OMcPzL-2293" value="50.50.50.2" style="shape=partialRectangle;html=1;whiteSpace=wrap;connectable=0;strokeColor=inherit;overflow=hidden;fillColor=none;top=0;left=0;bottom=0;right=0;pointerEvents=1;fontSize=16;" vertex="1" parent="Jf1T5h9fYw6Bt_OMcPzL-2291">
          <mxGeometry x="210" width="210" height="45" as="geometry">
            <mxRectangle width="210" height="45" as="alternateBounds" />
          </mxGeometry>
        </mxCell>
        <mxCell id="Jf1T5h9fYw6Bt_OMcPzL-2363" style="shape=tableRow;horizontal=0;startSize=0;swimlaneHead=0;swimlaneBody=0;strokeColor=inherit;top=0;left=0;bottom=0;right=0;collapsible=0;dropTarget=0;fillColor=none;points=[[0,0.5],[1,0.5]];portConstraint=eastwest;fontSize=16;" vertex="1" parent="Jf1T5h9fYw6Bt_OMcPzL-2282">
          <mxGeometry y="164" width="420" height="46" as="geometry" />
        </mxCell>
        <mxCell id="Jf1T5h9fYw6Bt_OMcPzL-2364" value="192.168.1.5" style="shape=partialRectangle;html=1;whiteSpace=wrap;connectable=0;strokeColor=inherit;overflow=hidden;fillColor=none;top=0;left=0;bottom=0;right=0;pointerEvents=1;fontSize=16;" vertex="1" parent="Jf1T5h9fYw6Bt_OMcPzL-2363">
          <mxGeometry width="210" height="46" as="geometry">
            <mxRectangle width="210" height="46" as="alternateBounds" />
          </mxGeometry>
        </mxCell>
        <mxCell id="Jf1T5h9fYw6Bt_OMcPzL-2365" value="50.50.50.3" style="shape=partialRectangle;html=1;whiteSpace=wrap;connectable=0;strokeColor=inherit;overflow=hidden;fillColor=none;top=0;left=0;bottom=0;right=0;pointerEvents=1;fontSize=16;" vertex="1" parent="Jf1T5h9fYw6Bt_OMcPzL-2363">
          <mxGeometry x="210" width="210" height="46" as="geometry">
            <mxRectangle width="210" height="46" as="alternateBounds" />
          </mxGeometry>
        </mxCell>
        <mxCell id="Jf1T5h9fYw6Bt_OMcPzL-2257" value="" style="shape=mxgraph.cisco.computers_and_peripherals.pc;sketch=0;html=1;pointerEvents=1;dashed=0;fillColor=#036897;strokeColor=#ffffff;strokeWidth=2;verticalLabelPosition=bottom;verticalAlign=top;align=center;outlineConnect=0;" vertex="1" parent="1">
          <mxGeometry x="62" y="40" width="78" height="70" as="geometry" />
        </mxCell>
        <mxCell id="Jf1T5h9fYw6Bt_OMcPzL-2270" value="" style="shape=mxgraph.cisco.computers_and_peripherals.pc;sketch=0;html=1;pointerEvents=1;dashed=0;fillColor=#036897;strokeColor=#ffffff;strokeWidth=2;verticalLabelPosition=bottom;verticalAlign=top;align=center;outlineConnect=0;" vertex="1" parent="1">
          <mxGeometry x="62" y="431.5" width="78" height="70" as="geometry" />
        </mxCell>
        <mxCell id="Jf1T5h9fYw6Bt_OMcPzL-2298" style="edgeStyle=orthogonalEdgeStyle;rounded=0;orthogonalLoop=1;jettySize=auto;html=1;exitX=0.83;exitY=0.5;exitDx=0;exitDy=0;exitPerimeter=0;entryX=0;entryY=0.5;entryDx=0;entryDy=0;entryPerimeter=0;" edge="1" parent="1" source="Jf1T5h9fYw6Bt_OMcPzL-2271" target="Jf1T5h9fYw6Bt_OMcPzL-2295">
          <mxGeometry relative="1" as="geometry">
            <mxPoint x="592" y="341.5" as="targetPoint" />
          </mxGeometry>
        </mxCell>
        <mxCell id="Jf1T5h9fYw6Bt_OMcPzL-2271" value="" style="shape=mxgraph.cisco.computers_and_peripherals.pc;sketch=0;html=1;pointerEvents=1;dashed=0;fillColor=#036897;strokeColor=#ffffff;strokeWidth=2;verticalLabelPosition=bottom;verticalAlign=top;align=center;outlineConnect=0;" vertex="1" parent="1">
          <mxGeometry x="62" y="940" width="78" height="70" as="geometry" />
        </mxCell>
        <mxCell id="Jf1T5h9fYw6Bt_OMcPzL-2391" style="edgeStyle=orthogonalEdgeStyle;rounded=0;orthogonalLoop=1;jettySize=auto;html=1;" edge="1" parent="1" source="Jf1T5h9fYw6Bt_OMcPzL-2295" target="Jf1T5h9fYw6Bt_OMcPzL-2329">
          <mxGeometry relative="1" as="geometry" />
        </mxCell>
        <mxCell id="Jf1T5h9fYw6Bt_OMcPzL-2295" value="" style="shape=mxgraph.cisco.routers.router;sketch=0;html=1;pointerEvents=1;dashed=0;fillColor=#036897;strokeColor=#ffffff;strokeWidth=2;verticalLabelPosition=bottom;verticalAlign=top;align=center;outlineConnect=0;" vertex="1" parent="1">
          <mxGeometry x="1322" y="440" width="78" height="53" as="geometry" />
        </mxCell>
        <mxCell id="Jf1T5h9fYw6Bt_OMcPzL-2296" style="edgeStyle=orthogonalEdgeStyle;rounded=0;orthogonalLoop=1;jettySize=auto;html=1;entryX=0;entryY=0.5;entryDx=0;entryDy=0;entryPerimeter=0;" edge="1" parent="1" source="Jf1T5h9fYw6Bt_OMcPzL-2257" target="Jf1T5h9fYw6Bt_OMcPzL-2295">
          <mxGeometry relative="1" as="geometry" />
        </mxCell>
        <mxCell id="Jf1T5h9fYw6Bt_OMcPzL-2297" style="edgeStyle=orthogonalEdgeStyle;rounded=0;orthogonalLoop=1;jettySize=auto;html=1;entryX=0;entryY=0.5;entryDx=0;entryDy=0;entryPerimeter=0;" edge="1" parent="1" source="Jf1T5h9fYw6Bt_OMcPzL-2270" target="Jf1T5h9fYw6Bt_OMcPzL-2295">
          <mxGeometry relative="1" as="geometry" />
        </mxCell>
        <mxCell id="Jf1T5h9fYw6Bt_OMcPzL-2311" value="Outgoing Packet" style="shape=table;startSize=30;container=1;collapsible=0;childLayout=tableLayout;strokeColor=default;fontSize=16;" vertex="1" parent="1">
          <mxGeometry x="150" y="-60" width="340" height="110" as="geometry" />
        </mxCell>
        <mxCell id="Jf1T5h9fYw6Bt_OMcPzL-2312" value="" style="shape=tableRow;horizontal=0;startSize=0;swimlaneHead=0;swimlaneBody=0;strokeColor=inherit;top=0;left=0;bottom=0;right=0;collapsible=0;dropTarget=0;fillColor=none;points=[[0,0.5],[1,0.5]];portConstraint=eastwest;fontSize=16;" vertex="1" parent="Jf1T5h9fYw6Bt_OMcPzL-2311">
          <mxGeometry y="30" width="340" height="40" as="geometry" />
        </mxCell>
        <mxCell id="Jf1T5h9fYw6Bt_OMcPzL-2313" value="Source IP" style="shape=partialRectangle;html=1;whiteSpace=wrap;connectable=0;strokeColor=inherit;overflow=hidden;fillColor=none;top=0;left=0;bottom=0;right=0;pointerEvents=1;fontSize=16;" vertex="1" parent="Jf1T5h9fYw6Bt_OMcPzL-2312">
          <mxGeometry width="170" height="40" as="geometry">
            <mxRectangle width="170" height="40" as="alternateBounds" />
          </mxGeometry>
        </mxCell>
        <mxCell id="Jf1T5h9fYw6Bt_OMcPzL-2326" value="192.168.1.3" style="shape=partialRectangle;html=1;whiteSpace=wrap;connectable=0;strokeColor=inherit;overflow=hidden;fillColor=none;top=0;left=0;bottom=0;right=0;pointerEvents=1;fontSize=16;" vertex="1" parent="Jf1T5h9fYw6Bt_OMcPzL-2312">
          <mxGeometry x="170" width="170" height="40" as="geometry">
            <mxRectangle width="170" height="40" as="alternateBounds" />
          </mxGeometry>
        </mxCell>
        <mxCell id="Jf1T5h9fYw6Bt_OMcPzL-2324" style="shape=tableRow;horizontal=0;startSize=0;swimlaneHead=0;swimlaneBody=0;strokeColor=inherit;top=0;left=0;bottom=0;right=0;collapsible=0;dropTarget=0;fillColor=none;points=[[0,0.5],[1,0.5]];portConstraint=eastwest;fontSize=16;" vertex="1" parent="Jf1T5h9fYw6Bt_OMcPzL-2311">
          <mxGeometry y="70" width="340" height="40" as="geometry" />
        </mxCell>
        <mxCell id="Jf1T5h9fYw6Bt_OMcPzL-2325" value="Destination IP" style="shape=partialRectangle;html=1;whiteSpace=wrap;connectable=0;strokeColor=inherit;overflow=hidden;fillColor=none;top=0;left=0;bottom=0;right=0;pointerEvents=1;fontSize=16;" vertex="1" parent="Jf1T5h9fYw6Bt_OMcPzL-2324">
          <mxGeometry width="170" height="40" as="geometry">
            <mxRectangle width="170" height="40" as="alternateBounds" />
          </mxGeometry>
        </mxCell>
        <mxCell id="Jf1T5h9fYw6Bt_OMcPzL-2327" value="203.0.113.1" style="shape=partialRectangle;html=1;whiteSpace=wrap;connectable=0;strokeColor=inherit;overflow=hidden;fillColor=none;top=0;left=0;bottom=0;right=0;pointerEvents=1;fontSize=16;" vertex="1" parent="Jf1T5h9fYw6Bt_OMcPzL-2324">
          <mxGeometry x="170" width="170" height="40" as="geometry">
            <mxRectangle width="170" height="40" as="alternateBounds" />
          </mxGeometry>
        </mxCell>
        <mxCell id="Jf1T5h9fYw6Bt_OMcPzL-2329" value="" style="shape=mxgraph.cisco.servers.fileserver;sketch=0;html=1;pointerEvents=1;dashed=0;fillColor=#036897;strokeColor=#ffffff;strokeWidth=2;verticalLabelPosition=bottom;verticalAlign=top;align=center;outlineConnect=0;" vertex="1" parent="1">
          <mxGeometry x="2025" y="406" width="90" height="121" as="geometry" />
        </mxCell>
        <mxCell id="Jf1T5h9fYw6Bt_OMcPzL-2331" value="&lt;font style=&quot;font-size: 18px;&quot;&gt;&lt;b&gt;[PC-01]&lt;/b&gt;&amp;nbsp;192.168.1.3&lt;/font&gt;" style="text;html=1;strokeColor=none;fillColor=none;align=center;verticalAlign=middle;whiteSpace=wrap;rounded=0;" vertex="1" parent="1">
          <mxGeometry y="120" width="210" height="30" as="geometry" />
        </mxCell>
        <mxCell id="Jf1T5h9fYw6Bt_OMcPzL-2332" value="&lt;font style=&quot;font-size: 18px;&quot;&gt;&lt;b&gt;[PC-02]&lt;/b&gt;&amp;nbsp;192.168.1.4&lt;/font&gt;" style="text;html=1;strokeColor=none;fillColor=none;align=center;verticalAlign=middle;whiteSpace=wrap;rounded=0;" vertex="1" parent="1">
          <mxGeometry x="-4" y="516.5" width="210" height="30" as="geometry" />
        </mxCell>
        <mxCell id="Jf1T5h9fYw6Bt_OMcPzL-2333" value="&lt;font style=&quot;font-size: 18px;&quot;&gt;&lt;b&gt;[Server]&lt;/b&gt; 203.0.113.1&lt;/font&gt;" style="text;html=1;align=center;verticalAlign=middle;resizable=0;points=[];autosize=1;strokeColor=none;fillColor=none;" vertex="1" parent="1">
          <mxGeometry x="1970" y="366" width="190" height="40" as="geometry" />
        </mxCell>
        <mxCell id="Jf1T5h9fYw6Bt_OMcPzL-2334" value="Outgoing Packet" style="shape=table;startSize=30;container=1;collapsible=0;childLayout=tableLayout;strokeColor=default;fontSize=16;" vertex="1" parent="1">
          <mxGeometry x="840" y="-60" width="340" height="110" as="geometry" />
        </mxCell>
        <mxCell id="Jf1T5h9fYw6Bt_OMcPzL-2335" value="" style="shape=tableRow;horizontal=0;startSize=0;swimlaneHead=0;swimlaneBody=0;strokeColor=inherit;top=0;left=0;bottom=0;right=0;collapsible=0;dropTarget=0;fillColor=none;points=[[0,0.5],[1,0.5]];portConstraint=eastwest;fontSize=16;" vertex="1" parent="Jf1T5h9fYw6Bt_OMcPzL-2334">
          <mxGeometry y="30" width="340" height="40" as="geometry" />
        </mxCell>
        <mxCell id="Jf1T5h9fYw6Bt_OMcPzL-2336" value="Source IP" style="shape=partialRectangle;html=1;whiteSpace=wrap;connectable=0;strokeColor=inherit;overflow=hidden;fillColor=none;top=0;left=0;bottom=0;right=0;pointerEvents=1;fontSize=16;" vertex="1" parent="Jf1T5h9fYw6Bt_OMcPzL-2335">
          <mxGeometry width="170" height="40" as="geometry">
            <mxRectangle width="170" height="40" as="alternateBounds" />
          </mxGeometry>
        </mxCell>
        <mxCell id="Jf1T5h9fYw6Bt_OMcPzL-2337" value="50.50.50.1" style="shape=partialRectangle;html=1;whiteSpace=wrap;connectable=0;strokeColor=inherit;overflow=hidden;fillColor=none;top=0;left=0;bottom=0;right=0;pointerEvents=1;fontSize=16;" vertex="1" parent="Jf1T5h9fYw6Bt_OMcPzL-2335">
          <mxGeometry x="170" width="170" height="40" as="geometry">
            <mxRectangle width="170" height="40" as="alternateBounds" />
          </mxGeometry>
        </mxCell>
        <mxCell id="Jf1T5h9fYw6Bt_OMcPzL-2338" style="shape=tableRow;horizontal=0;startSize=0;swimlaneHead=0;swimlaneBody=0;strokeColor=inherit;top=0;left=0;bottom=0;right=0;collapsible=0;dropTarget=0;fillColor=none;points=[[0,0.5],[1,0.5]];portConstraint=eastwest;fontSize=16;" vertex="1" parent="Jf1T5h9fYw6Bt_OMcPzL-2334">
          <mxGeometry y="70" width="340" height="40" as="geometry" />
        </mxCell>
        <mxCell id="Jf1T5h9fYw6Bt_OMcPzL-2339" value="Destination IP" style="shape=partialRectangle;html=1;whiteSpace=wrap;connectable=0;strokeColor=inherit;overflow=hidden;fillColor=none;top=0;left=0;bottom=0;right=0;pointerEvents=1;fontSize=16;" vertex="1" parent="Jf1T5h9fYw6Bt_OMcPzL-2338">
          <mxGeometry width="170" height="40" as="geometry">
            <mxRectangle width="170" height="40" as="alternateBounds" />
          </mxGeometry>
        </mxCell>
        <mxCell id="Jf1T5h9fYw6Bt_OMcPzL-2340" value="203.0.113.1" style="shape=partialRectangle;html=1;whiteSpace=wrap;connectable=0;strokeColor=inherit;overflow=hidden;fillColor=none;top=0;left=0;bottom=0;right=0;pointerEvents=1;fontSize=16;" vertex="1" parent="Jf1T5h9fYw6Bt_OMcPzL-2338">
          <mxGeometry x="170" width="170" height="40" as="geometry">
            <mxRectangle width="170" height="40" as="alternateBounds" />
          </mxGeometry>
        </mxCell>
        <mxCell id="Jf1T5h9fYw6Bt_OMcPzL-2343" style="edgeStyle=orthogonalEdgeStyle;rounded=0;orthogonalLoop=1;jettySize=auto;html=1;entryX=0;entryY=0.5;entryDx=0;entryDy=0;strokeColor=#FF3333;" edge="1" parent="1" source="Jf1T5h9fYw6Bt_OMcPzL-2312" target="Jf1T5h9fYw6Bt_OMcPzL-2335">
          <mxGeometry relative="1" as="geometry" />
        </mxCell>
        <mxCell id="Jf1T5h9fYw6Bt_OMcPzL-2344" value="&lt;font style=&quot;font-size: 18px;&quot;&gt;&lt;b&gt;Default Gateway&lt;/b&gt;&amp;nbsp;&lt;br&gt;192.168.1.1&lt;br&gt;&lt;/font&gt;" style="text;html=1;align=center;verticalAlign=middle;resizable=0;points=[];autosize=1;strokeColor=none;fillColor=none;" vertex="1" parent="1">
          <mxGeometry x="1192" y="490" width="170" height="60" as="geometry" />
        </mxCell>
        <mxCell id="Jf1T5h9fYw6Bt_OMcPzL-2347" value="&lt;b style=&quot;border-color: var(--border-color); color: rgb(0, 0, 0); font-family: Helvetica; font-size: 18px; font-style: normal; font-variant-ligatures: normal; font-variant-caps: normal; letter-spacing: normal; orphans: 2; text-indent: 0px; text-transform: none; widows: 2; word-spacing: 0px; -webkit-text-stroke-width: 0px; background-color: rgb(251, 251, 251); text-decoration-thickness: initial; text-decoration-style: initial; text-decoration-color: initial;&quot;&gt;Public IP&lt;/b&gt;&lt;span style=&quot;color: rgb(0, 0, 0); font-family: Helvetica; font-size: 18px; font-style: normal; font-variant-ligatures: normal; font-variant-caps: normal; font-weight: 400; letter-spacing: normal; orphans: 2; text-indent: 0px; text-transform: none; widows: 2; word-spacing: 0px; -webkit-text-stroke-width: 0px; background-color: rgb(251, 251, 251); text-decoration-thickness: initial; text-decoration-style: initial; text-decoration-color: initial; float: none; display: inline !important;&quot;&gt;&lt;span&gt;&lt;br&gt;&lt;/span&gt;50.50.50.1&lt;br&gt;50.50.50.2&lt;br&gt;50.50.50.3&lt;br&gt;&lt;/span&gt;" style="text;whiteSpace=wrap;html=1;align=center;" vertex="1" parent="1">
          <mxGeometry x="1390" y="490" width="119" height="150" as="geometry" />
        </mxCell>
        <mxCell id="Jf1T5h9fYw6Bt_OMcPzL-2366" style="edgeStyle=orthogonalEdgeStyle;rounded=0;orthogonalLoop=1;jettySize=auto;html=1;strokeColor=#FF6666;" edge="1" parent="1" source="Jf1T5h9fYw6Bt_OMcPzL-2335">
          <mxGeometry relative="1" as="geometry">
            <mxPoint x="1970" y="-10" as="targetPoint" />
          </mxGeometry>
        </mxCell>
        <mxCell id="Jf1T5h9fYw6Bt_OMcPzL-2374" value="Incoming Packet" style="shape=table;startSize=30;container=1;collapsible=0;childLayout=tableLayout;strokeColor=default;fontSize=16;" vertex="1" parent="1">
          <mxGeometry x="1630" y="90" width="340" height="110" as="geometry" />
        </mxCell>
        <mxCell id="Jf1T5h9fYw6Bt_OMcPzL-2375" value="" style="shape=tableRow;horizontal=0;startSize=0;swimlaneHead=0;swimlaneBody=0;strokeColor=inherit;top=0;left=0;bottom=0;right=0;collapsible=0;dropTarget=0;fillColor=none;points=[[0,0.5],[1,0.5]];portConstraint=eastwest;fontSize=16;" vertex="1" parent="Jf1T5h9fYw6Bt_OMcPzL-2374">
          <mxGeometry y="30" width="340" height="40" as="geometry" />
        </mxCell>
        <mxCell id="Jf1T5h9fYw6Bt_OMcPzL-2376" value="Source IP" style="shape=partialRectangle;html=1;whiteSpace=wrap;connectable=0;strokeColor=inherit;overflow=hidden;fillColor=none;top=0;left=0;bottom=0;right=0;pointerEvents=1;fontSize=16;" vertex="1" parent="Jf1T5h9fYw6Bt_OMcPzL-2375">
          <mxGeometry width="170" height="40" as="geometry">
            <mxRectangle width="170" height="40" as="alternateBounds" />
          </mxGeometry>
        </mxCell>
        <mxCell id="Jf1T5h9fYw6Bt_OMcPzL-2377" value="203.0.113.1" style="shape=partialRectangle;html=1;whiteSpace=wrap;connectable=0;strokeColor=inherit;overflow=hidden;fillColor=none;top=0;left=0;bottom=0;right=0;pointerEvents=1;fontSize=16;" vertex="1" parent="Jf1T5h9fYw6Bt_OMcPzL-2375">
          <mxGeometry x="170" width="170" height="40" as="geometry">
            <mxRectangle width="170" height="40" as="alternateBounds" />
          </mxGeometry>
        </mxCell>
        <mxCell id="Jf1T5h9fYw6Bt_OMcPzL-2378" style="shape=tableRow;horizontal=0;startSize=0;swimlaneHead=0;swimlaneBody=0;strokeColor=inherit;top=0;left=0;bottom=0;right=0;collapsible=0;dropTarget=0;fillColor=none;points=[[0,0.5],[1,0.5]];portConstraint=eastwest;fontSize=16;" vertex="1" parent="Jf1T5h9fYw6Bt_OMcPzL-2374">
          <mxGeometry y="70" width="340" height="40" as="geometry" />
        </mxCell>
        <mxCell id="Jf1T5h9fYw6Bt_OMcPzL-2379" value="Destination IP" style="shape=partialRectangle;html=1;whiteSpace=wrap;connectable=0;strokeColor=inherit;overflow=hidden;fillColor=none;top=0;left=0;bottom=0;right=0;pointerEvents=1;fontSize=16;" vertex="1" parent="Jf1T5h9fYw6Bt_OMcPzL-2378">
          <mxGeometry width="170" height="40" as="geometry">
            <mxRectangle width="170" height="40" as="alternateBounds" />
          </mxGeometry>
        </mxCell>
        <mxCell id="Jf1T5h9fYw6Bt_OMcPzL-2380" value="50.50.50.1" style="shape=partialRectangle;html=1;whiteSpace=wrap;connectable=0;strokeColor=inherit;overflow=hidden;fillColor=none;top=0;left=0;bottom=0;right=0;pointerEvents=1;fontSize=16;" vertex="1" parent="Jf1T5h9fYw6Bt_OMcPzL-2378">
          <mxGeometry x="170" width="170" height="40" as="geometry">
            <mxRectangle width="170" height="40" as="alternateBounds" />
          </mxGeometry>
        </mxCell>
        <mxCell id="Jf1T5h9fYw6Bt_OMcPzL-2381" value="Incoming Packet" style="shape=table;startSize=30;container=1;collapsible=0;childLayout=tableLayout;strokeColor=default;fontSize=16;" vertex="1" parent="1">
          <mxGeometry x="840" y="90" width="340" height="110" as="geometry" />
        </mxCell>
        <mxCell id="Jf1T5h9fYw6Bt_OMcPzL-2382" value="" style="shape=tableRow;horizontal=0;startSize=0;swimlaneHead=0;swimlaneBody=0;strokeColor=inherit;top=0;left=0;bottom=0;right=0;collapsible=0;dropTarget=0;fillColor=none;points=[[0,0.5],[1,0.5]];portConstraint=eastwest;fontSize=16;" vertex="1" parent="Jf1T5h9fYw6Bt_OMcPzL-2381">
          <mxGeometry y="30" width="340" height="40" as="geometry" />
        </mxCell>
        <mxCell id="Jf1T5h9fYw6Bt_OMcPzL-2383" value="Source IP" style="shape=partialRectangle;html=1;whiteSpace=wrap;connectable=0;strokeColor=inherit;overflow=hidden;fillColor=none;top=0;left=0;bottom=0;right=0;pointerEvents=1;fontSize=16;" vertex="1" parent="Jf1T5h9fYw6Bt_OMcPzL-2382">
          <mxGeometry width="170" height="40" as="geometry">
            <mxRectangle width="170" height="40" as="alternateBounds" />
          </mxGeometry>
        </mxCell>
        <mxCell id="Jf1T5h9fYw6Bt_OMcPzL-2384" value="203.0.113.1" style="shape=partialRectangle;html=1;whiteSpace=wrap;connectable=0;strokeColor=inherit;overflow=hidden;fillColor=none;top=0;left=0;bottom=0;right=0;pointerEvents=1;fontSize=16;" vertex="1" parent="Jf1T5h9fYw6Bt_OMcPzL-2382">
          <mxGeometry x="170" width="170" height="40" as="geometry">
            <mxRectangle width="170" height="40" as="alternateBounds" />
          </mxGeometry>
        </mxCell>
        <mxCell id="Jf1T5h9fYw6Bt_OMcPzL-2385" style="shape=tableRow;horizontal=0;startSize=0;swimlaneHead=0;swimlaneBody=0;strokeColor=inherit;top=0;left=0;bottom=0;right=0;collapsible=0;dropTarget=0;fillColor=none;points=[[0,0.5],[1,0.5]];portConstraint=eastwest;fontSize=16;" vertex="1" parent="Jf1T5h9fYw6Bt_OMcPzL-2381">
          <mxGeometry y="70" width="340" height="40" as="geometry" />
        </mxCell>
        <mxCell id="Jf1T5h9fYw6Bt_OMcPzL-2386" value="Destination IP" style="shape=partialRectangle;html=1;whiteSpace=wrap;connectable=0;strokeColor=inherit;overflow=hidden;fillColor=none;top=0;left=0;bottom=0;right=0;pointerEvents=1;fontSize=16;" vertex="1" parent="Jf1T5h9fYw6Bt_OMcPzL-2385">
          <mxGeometry width="170" height="40" as="geometry">
            <mxRectangle width="170" height="40" as="alternateBounds" />
          </mxGeometry>
        </mxCell>
        <mxCell id="Jf1T5h9fYw6Bt_OMcPzL-2387" value="192.168.1.3" style="shape=partialRectangle;html=1;whiteSpace=wrap;connectable=0;strokeColor=inherit;overflow=hidden;fillColor=none;top=0;left=0;bottom=0;right=0;pointerEvents=1;fontSize=16;" vertex="1" parent="Jf1T5h9fYw6Bt_OMcPzL-2385">
          <mxGeometry x="170" width="170" height="40" as="geometry">
            <mxRectangle width="170" height="40" as="alternateBounds" />
          </mxGeometry>
        </mxCell>
        <mxCell id="Jf1T5h9fYw6Bt_OMcPzL-2389" style="edgeStyle=orthogonalEdgeStyle;rounded=0;orthogonalLoop=1;jettySize=auto;html=1;entryX=1;entryY=0.5;entryDx=0;entryDy=0;strokeColor=#00CC00;" edge="1" parent="1" source="Jf1T5h9fYw6Bt_OMcPzL-2375" target="Jf1T5h9fYw6Bt_OMcPzL-2382">
          <mxGeometry relative="1" as="geometry" />
        </mxCell>
        <mxCell id="Jf1T5h9fYw6Bt_OMcPzL-2390" style="edgeStyle=orthogonalEdgeStyle;rounded=0;orthogonalLoop=1;jettySize=auto;html=1;strokeColor=#00CC00;" edge="1" parent="1" source="Jf1T5h9fYw6Bt_OMcPzL-2382">
          <mxGeometry relative="1" as="geometry">
            <mxPoint x="250.00000000000023" y="140" as="targetPoint" />
          </mxGeometry>
        </mxCell>
        <mxCell id="Jf1T5h9fYw6Bt_OMcPzL-2425" value="Outgoing Packet" style="shape=table;startSize=30;container=1;collapsible=0;childLayout=tableLayout;strokeColor=default;fontSize=16;" vertex="1" parent="1">
          <mxGeometry x="150" y="306.5" width="340" height="110" as="geometry" />
        </mxCell>
        <mxCell id="Jf1T5h9fYw6Bt_OMcPzL-2426" value="" style="shape=tableRow;horizontal=0;startSize=0;swimlaneHead=0;swimlaneBody=0;strokeColor=inherit;top=0;left=0;bottom=0;right=0;collapsible=0;dropTarget=0;fillColor=none;points=[[0,0.5],[1,0.5]];portConstraint=eastwest;fontSize=16;" vertex="1" parent="Jf1T5h9fYw6Bt_OMcPzL-2425">
          <mxGeometry y="30" width="340" height="40" as="geometry" />
        </mxCell>
        <mxCell id="Jf1T5h9fYw6Bt_OMcPzL-2427" value="Source IP" style="shape=partialRectangle;html=1;whiteSpace=wrap;connectable=0;strokeColor=inherit;overflow=hidden;fillColor=none;top=0;left=0;bottom=0;right=0;pointerEvents=1;fontSize=16;" vertex="1" parent="Jf1T5h9fYw6Bt_OMcPzL-2426">
          <mxGeometry width="170" height="40" as="geometry">
            <mxRectangle width="170" height="40" as="alternateBounds" />
          </mxGeometry>
        </mxCell>
        <mxCell id="Jf1T5h9fYw6Bt_OMcPzL-2428" value="192.168.1.4" style="shape=partialRectangle;html=1;whiteSpace=wrap;connectable=0;strokeColor=inherit;overflow=hidden;fillColor=none;top=0;left=0;bottom=0;right=0;pointerEvents=1;fontSize=16;" vertex="1" parent="Jf1T5h9fYw6Bt_OMcPzL-2426">
          <mxGeometry x="170" width="170" height="40" as="geometry">
            <mxRectangle width="170" height="40" as="alternateBounds" />
          </mxGeometry>
        </mxCell>
        <mxCell id="Jf1T5h9fYw6Bt_OMcPzL-2429" style="shape=tableRow;horizontal=0;startSize=0;swimlaneHead=0;swimlaneBody=0;strokeColor=inherit;top=0;left=0;bottom=0;right=0;collapsible=0;dropTarget=0;fillColor=none;points=[[0,0.5],[1,0.5]];portConstraint=eastwest;fontSize=16;" vertex="1" parent="Jf1T5h9fYw6Bt_OMcPzL-2425">
          <mxGeometry y="70" width="340" height="40" as="geometry" />
        </mxCell>
        <mxCell id="Jf1T5h9fYw6Bt_OMcPzL-2430" value="Destination IP" style="shape=partialRectangle;html=1;whiteSpace=wrap;connectable=0;strokeColor=inherit;overflow=hidden;fillColor=none;top=0;left=0;bottom=0;right=0;pointerEvents=1;fontSize=16;" vertex="1" parent="Jf1T5h9fYw6Bt_OMcPzL-2429">
          <mxGeometry width="170" height="40" as="geometry">
            <mxRectangle width="170" height="40" as="alternateBounds" />
          </mxGeometry>
        </mxCell>
        <mxCell id="Jf1T5h9fYw6Bt_OMcPzL-2431" value="203.0.113.1" style="shape=partialRectangle;html=1;whiteSpace=wrap;connectable=0;strokeColor=inherit;overflow=hidden;fillColor=none;top=0;left=0;bottom=0;right=0;pointerEvents=1;fontSize=16;" vertex="1" parent="Jf1T5h9fYw6Bt_OMcPzL-2429">
          <mxGeometry x="170" width="170" height="40" as="geometry">
            <mxRectangle width="170" height="40" as="alternateBounds" />
          </mxGeometry>
        </mxCell>
        <mxCell id="Jf1T5h9fYw6Bt_OMcPzL-2432" value="Outgoing Packet" style="shape=table;startSize=30;container=1;collapsible=0;childLayout=tableLayout;strokeColor=default;fontSize=16;" vertex="1" parent="1">
          <mxGeometry x="840" y="306.5" width="340" height="110" as="geometry" />
        </mxCell>
        <mxCell id="Jf1T5h9fYw6Bt_OMcPzL-2433" value="" style="shape=tableRow;horizontal=0;startSize=0;swimlaneHead=0;swimlaneBody=0;strokeColor=inherit;top=0;left=0;bottom=0;right=0;collapsible=0;dropTarget=0;fillColor=none;points=[[0,0.5],[1,0.5]];portConstraint=eastwest;fontSize=16;" vertex="1" parent="Jf1T5h9fYw6Bt_OMcPzL-2432">
          <mxGeometry y="30" width="340" height="40" as="geometry" />
        </mxCell>
        <mxCell id="Jf1T5h9fYw6Bt_OMcPzL-2434" value="Source IP" style="shape=partialRectangle;html=1;whiteSpace=wrap;connectable=0;strokeColor=inherit;overflow=hidden;fillColor=none;top=0;left=0;bottom=0;right=0;pointerEvents=1;fontSize=16;" vertex="1" parent="Jf1T5h9fYw6Bt_OMcPzL-2433">
          <mxGeometry width="170" height="40" as="geometry">
            <mxRectangle width="170" height="40" as="alternateBounds" />
          </mxGeometry>
        </mxCell>
        <mxCell id="Jf1T5h9fYw6Bt_OMcPzL-2435" value="50.50.50.2" style="shape=partialRectangle;html=1;whiteSpace=wrap;connectable=0;strokeColor=inherit;overflow=hidden;fillColor=none;top=0;left=0;bottom=0;right=0;pointerEvents=1;fontSize=16;" vertex="1" parent="Jf1T5h9fYw6Bt_OMcPzL-2433">
          <mxGeometry x="170" width="170" height="40" as="geometry">
            <mxRectangle width="170" height="40" as="alternateBounds" />
          </mxGeometry>
        </mxCell>
        <mxCell id="Jf1T5h9fYw6Bt_OMcPzL-2436" style="shape=tableRow;horizontal=0;startSize=0;swimlaneHead=0;swimlaneBody=0;strokeColor=inherit;top=0;left=0;bottom=0;right=0;collapsible=0;dropTarget=0;fillColor=none;points=[[0,0.5],[1,0.5]];portConstraint=eastwest;fontSize=16;" vertex="1" parent="Jf1T5h9fYw6Bt_OMcPzL-2432">
          <mxGeometry y="70" width="340" height="40" as="geometry" />
        </mxCell>
        <mxCell id="Jf1T5h9fYw6Bt_OMcPzL-2437" value="Destination IP" style="shape=partialRectangle;html=1;whiteSpace=wrap;connectable=0;strokeColor=inherit;overflow=hidden;fillColor=none;top=0;left=0;bottom=0;right=0;pointerEvents=1;fontSize=16;" vertex="1" parent="Jf1T5h9fYw6Bt_OMcPzL-2436">
          <mxGeometry width="170" height="40" as="geometry">
            <mxRectangle width="170" height="40" as="alternateBounds" />
          </mxGeometry>
        </mxCell>
        <mxCell id="Jf1T5h9fYw6Bt_OMcPzL-2438" value="203.0.113.1" style="shape=partialRectangle;html=1;whiteSpace=wrap;connectable=0;strokeColor=inherit;overflow=hidden;fillColor=none;top=0;left=0;bottom=0;right=0;pointerEvents=1;fontSize=16;" vertex="1" parent="Jf1T5h9fYw6Bt_OMcPzL-2436">
          <mxGeometry x="170" width="170" height="40" as="geometry">
            <mxRectangle width="170" height="40" as="alternateBounds" />
          </mxGeometry>
        </mxCell>
        <mxCell id="Jf1T5h9fYw6Bt_OMcPzL-2439" style="edgeStyle=orthogonalEdgeStyle;rounded=0;orthogonalLoop=1;jettySize=auto;html=1;entryX=0;entryY=0.5;entryDx=0;entryDy=0;strokeColor=#FF3333;" edge="1" parent="1" source="Jf1T5h9fYw6Bt_OMcPzL-2426" target="Jf1T5h9fYw6Bt_OMcPzL-2433">
          <mxGeometry relative="1" as="geometry" />
        </mxCell>
        <mxCell id="Jf1T5h9fYw6Bt_OMcPzL-2440" style="edgeStyle=orthogonalEdgeStyle;rounded=0;orthogonalLoop=1;jettySize=auto;html=1;strokeColor=#FF6666;" edge="1" parent="1" source="Jf1T5h9fYw6Bt_OMcPzL-2433">
          <mxGeometry relative="1" as="geometry">
            <mxPoint x="1970" y="356.5" as="targetPoint" />
          </mxGeometry>
        </mxCell>
        <mxCell id="Jf1T5h9fYw6Bt_OMcPzL-2441" value="Incoming Package" style="shape=table;startSize=30;container=1;collapsible=0;childLayout=tableLayout;strokeColor=default;fontSize=16;" vertex="1" parent="1">
          <mxGeometry x="1654" y="556.5" width="340" height="110" as="geometry" />
        </mxCell>
        <mxCell id="Jf1T5h9fYw6Bt_OMcPzL-2442" value="" style="shape=tableRow;horizontal=0;startSize=0;swimlaneHead=0;swimlaneBody=0;strokeColor=inherit;top=0;left=0;bottom=0;right=0;collapsible=0;dropTarget=0;fillColor=none;points=[[0,0.5],[1,0.5]];portConstraint=eastwest;fontSize=16;" vertex="1" parent="Jf1T5h9fYw6Bt_OMcPzL-2441">
          <mxGeometry y="30" width="340" height="40" as="geometry" />
        </mxCell>
        <mxCell id="Jf1T5h9fYw6Bt_OMcPzL-2443" value="Source IP" style="shape=partialRectangle;html=1;whiteSpace=wrap;connectable=0;strokeColor=inherit;overflow=hidden;fillColor=none;top=0;left=0;bottom=0;right=0;pointerEvents=1;fontSize=16;" vertex="1" parent="Jf1T5h9fYw6Bt_OMcPzL-2442">
          <mxGeometry width="170" height="40" as="geometry">
            <mxRectangle width="170" height="40" as="alternateBounds" />
          </mxGeometry>
        </mxCell>
        <mxCell id="Jf1T5h9fYw6Bt_OMcPzL-2444" value="203.0.113.1" style="shape=partialRectangle;html=1;whiteSpace=wrap;connectable=0;strokeColor=inherit;overflow=hidden;fillColor=none;top=0;left=0;bottom=0;right=0;pointerEvents=1;fontSize=16;" vertex="1" parent="Jf1T5h9fYw6Bt_OMcPzL-2442">
          <mxGeometry x="170" width="170" height="40" as="geometry">
            <mxRectangle width="170" height="40" as="alternateBounds" />
          </mxGeometry>
        </mxCell>
        <mxCell id="Jf1T5h9fYw6Bt_OMcPzL-2445" style="shape=tableRow;horizontal=0;startSize=0;swimlaneHead=0;swimlaneBody=0;strokeColor=inherit;top=0;left=0;bottom=0;right=0;collapsible=0;dropTarget=0;fillColor=none;points=[[0,0.5],[1,0.5]];portConstraint=eastwest;fontSize=16;" vertex="1" parent="Jf1T5h9fYw6Bt_OMcPzL-2441">
          <mxGeometry y="70" width="340" height="40" as="geometry" />
        </mxCell>
        <mxCell id="Jf1T5h9fYw6Bt_OMcPzL-2446" value="Destination IP" style="shape=partialRectangle;html=1;whiteSpace=wrap;connectable=0;strokeColor=inherit;overflow=hidden;fillColor=none;top=0;left=0;bottom=0;right=0;pointerEvents=1;fontSize=16;" vertex="1" parent="Jf1T5h9fYw6Bt_OMcPzL-2445">
          <mxGeometry width="170" height="40" as="geometry">
            <mxRectangle width="170" height="40" as="alternateBounds" />
          </mxGeometry>
        </mxCell>
        <mxCell id="Jf1T5h9fYw6Bt_OMcPzL-2447" value="50.50.50.2" style="shape=partialRectangle;html=1;whiteSpace=wrap;connectable=0;strokeColor=inherit;overflow=hidden;fillColor=none;top=0;left=0;bottom=0;right=0;pointerEvents=1;fontSize=16;" vertex="1" parent="Jf1T5h9fYw6Bt_OMcPzL-2445">
          <mxGeometry x="170" width="170" height="40" as="geometry">
            <mxRectangle width="170" height="40" as="alternateBounds" />
          </mxGeometry>
        </mxCell>
        <mxCell id="Jf1T5h9fYw6Bt_OMcPzL-2448" value="Incoming Package" style="shape=table;startSize=30;container=1;collapsible=0;childLayout=tableLayout;strokeColor=default;fontSize=16;" vertex="1" parent="1">
          <mxGeometry x="840" y="556.5" width="340" height="110" as="geometry" />
        </mxCell>
        <mxCell id="Jf1T5h9fYw6Bt_OMcPzL-2449" value="" style="shape=tableRow;horizontal=0;startSize=0;swimlaneHead=0;swimlaneBody=0;strokeColor=inherit;top=0;left=0;bottom=0;right=0;collapsible=0;dropTarget=0;fillColor=none;points=[[0,0.5],[1,0.5]];portConstraint=eastwest;fontSize=16;" vertex="1" parent="Jf1T5h9fYw6Bt_OMcPzL-2448">
          <mxGeometry y="30" width="340" height="40" as="geometry" />
        </mxCell>
        <mxCell id="Jf1T5h9fYw6Bt_OMcPzL-2450" value="Source IP" style="shape=partialRectangle;html=1;whiteSpace=wrap;connectable=0;strokeColor=inherit;overflow=hidden;fillColor=none;top=0;left=0;bottom=0;right=0;pointerEvents=1;fontSize=16;" vertex="1" parent="Jf1T5h9fYw6Bt_OMcPzL-2449">
          <mxGeometry width="170" height="40" as="geometry">
            <mxRectangle width="170" height="40" as="alternateBounds" />
          </mxGeometry>
        </mxCell>
        <mxCell id="Jf1T5h9fYw6Bt_OMcPzL-2451" value="203.0.113.1" style="shape=partialRectangle;html=1;whiteSpace=wrap;connectable=0;strokeColor=inherit;overflow=hidden;fillColor=none;top=0;left=0;bottom=0;right=0;pointerEvents=1;fontSize=16;" vertex="1" parent="Jf1T5h9fYw6Bt_OMcPzL-2449">
          <mxGeometry x="170" width="170" height="40" as="geometry">
            <mxRectangle width="170" height="40" as="alternateBounds" />
          </mxGeometry>
        </mxCell>
        <mxCell id="Jf1T5h9fYw6Bt_OMcPzL-2452" style="shape=tableRow;horizontal=0;startSize=0;swimlaneHead=0;swimlaneBody=0;strokeColor=inherit;top=0;left=0;bottom=0;right=0;collapsible=0;dropTarget=0;fillColor=none;points=[[0,0.5],[1,0.5]];portConstraint=eastwest;fontSize=16;" vertex="1" parent="Jf1T5h9fYw6Bt_OMcPzL-2448">
          <mxGeometry y="70" width="340" height="40" as="geometry" />
        </mxCell>
        <mxCell id="Jf1T5h9fYw6Bt_OMcPzL-2453" value="Destination IP" style="shape=partialRectangle;html=1;whiteSpace=wrap;connectable=0;strokeColor=inherit;overflow=hidden;fillColor=none;top=0;left=0;bottom=0;right=0;pointerEvents=1;fontSize=16;" vertex="1" parent="Jf1T5h9fYw6Bt_OMcPzL-2452">
          <mxGeometry width="170" height="40" as="geometry">
            <mxRectangle width="170" height="40" as="alternateBounds" />
          </mxGeometry>
        </mxCell>
        <mxCell id="Jf1T5h9fYw6Bt_OMcPzL-2454" value="192.168.1.4" style="shape=partialRectangle;html=1;whiteSpace=wrap;connectable=0;strokeColor=inherit;overflow=hidden;fillColor=none;top=0;left=0;bottom=0;right=0;pointerEvents=1;fontSize=16;" vertex="1" parent="Jf1T5h9fYw6Bt_OMcPzL-2452">
          <mxGeometry x="170" width="170" height="40" as="geometry">
            <mxRectangle width="170" height="40" as="alternateBounds" />
          </mxGeometry>
        </mxCell>
        <mxCell id="Jf1T5h9fYw6Bt_OMcPzL-2455" style="edgeStyle=orthogonalEdgeStyle;rounded=0;orthogonalLoop=1;jettySize=auto;html=1;entryX=1;entryY=0.5;entryDx=0;entryDy=0;strokeColor=#00CC00;" edge="1" parent="1" source="Jf1T5h9fYw6Bt_OMcPzL-2442" target="Jf1T5h9fYw6Bt_OMcPzL-2449">
          <mxGeometry relative="1" as="geometry">
            <Array as="points">
              <mxPoint x="1520" y="607" />
              <mxPoint x="1520" y="607" />
            </Array>
          </mxGeometry>
        </mxCell>
        <mxCell id="Jf1T5h9fYw6Bt_OMcPzL-2456" style="edgeStyle=orthogonalEdgeStyle;rounded=0;orthogonalLoop=1;jettySize=auto;html=1;strokeColor=#00CC00;" edge="1" parent="1" source="Jf1T5h9fYw6Bt_OMcPzL-2449">
          <mxGeometry relative="1" as="geometry">
            <mxPoint x="250" y="606" as="targetPoint" />
          </mxGeometry>
        </mxCell>
        <mxCell id="Jf1T5h9fYw6Bt_OMcPzL-2457" value="&lt;font style=&quot;font-size: 18px;&quot;&gt;&lt;b&gt;[PC-03]&lt;/b&gt;&amp;nbsp;192.168.1.5&lt;/font&gt;" style="text;html=1;strokeColor=none;fillColor=none;align=center;verticalAlign=middle;whiteSpace=wrap;rounded=0;" vertex="1" parent="1">
          <mxGeometry x="-4" y="1030" width="210" height="30" as="geometry" />
        </mxCell>
        <mxCell id="Jf1T5h9fYw6Bt_OMcPzL-2458" value="Outgoing Packet" style="shape=table;startSize=30;container=1;collapsible=0;childLayout=tableLayout;strokeColor=default;fontSize=16;" vertex="1" parent="1">
          <mxGeometry x="170" y="840" width="340" height="110" as="geometry" />
        </mxCell>
        <mxCell id="Jf1T5h9fYw6Bt_OMcPzL-2459" value="" style="shape=tableRow;horizontal=0;startSize=0;swimlaneHead=0;swimlaneBody=0;strokeColor=inherit;top=0;left=0;bottom=0;right=0;collapsible=0;dropTarget=0;fillColor=none;points=[[0,0.5],[1,0.5]];portConstraint=eastwest;fontSize=16;" vertex="1" parent="Jf1T5h9fYw6Bt_OMcPzL-2458">
          <mxGeometry y="30" width="340" height="40" as="geometry" />
        </mxCell>
        <mxCell id="Jf1T5h9fYw6Bt_OMcPzL-2460" value="Source IP" style="shape=partialRectangle;html=1;whiteSpace=wrap;connectable=0;strokeColor=inherit;overflow=hidden;fillColor=none;top=0;left=0;bottom=0;right=0;pointerEvents=1;fontSize=16;" vertex="1" parent="Jf1T5h9fYw6Bt_OMcPzL-2459">
          <mxGeometry width="170" height="40" as="geometry">
            <mxRectangle width="170" height="40" as="alternateBounds" />
          </mxGeometry>
        </mxCell>
        <mxCell id="Jf1T5h9fYw6Bt_OMcPzL-2461" value="192.168.1.5" style="shape=partialRectangle;html=1;whiteSpace=wrap;connectable=0;strokeColor=inherit;overflow=hidden;fillColor=none;top=0;left=0;bottom=0;right=0;pointerEvents=1;fontSize=16;" vertex="1" parent="Jf1T5h9fYw6Bt_OMcPzL-2459">
          <mxGeometry x="170" width="170" height="40" as="geometry">
            <mxRectangle width="170" height="40" as="alternateBounds" />
          </mxGeometry>
        </mxCell>
        <mxCell id="Jf1T5h9fYw6Bt_OMcPzL-2462" style="shape=tableRow;horizontal=0;startSize=0;swimlaneHead=0;swimlaneBody=0;strokeColor=inherit;top=0;left=0;bottom=0;right=0;collapsible=0;dropTarget=0;fillColor=none;points=[[0,0.5],[1,0.5]];portConstraint=eastwest;fontSize=16;" vertex="1" parent="Jf1T5h9fYw6Bt_OMcPzL-2458">
          <mxGeometry y="70" width="340" height="40" as="geometry" />
        </mxCell>
        <mxCell id="Jf1T5h9fYw6Bt_OMcPzL-2463" value="Destination IP" style="shape=partialRectangle;html=1;whiteSpace=wrap;connectable=0;strokeColor=inherit;overflow=hidden;fillColor=none;top=0;left=0;bottom=0;right=0;pointerEvents=1;fontSize=16;" vertex="1" parent="Jf1T5h9fYw6Bt_OMcPzL-2462">
          <mxGeometry width="170" height="40" as="geometry">
            <mxRectangle width="170" height="40" as="alternateBounds" />
          </mxGeometry>
        </mxCell>
        <mxCell id="Jf1T5h9fYw6Bt_OMcPzL-2464" value="203.0.113.1" style="shape=partialRectangle;html=1;whiteSpace=wrap;connectable=0;strokeColor=inherit;overflow=hidden;fillColor=none;top=0;left=0;bottom=0;right=0;pointerEvents=1;fontSize=16;" vertex="1" parent="Jf1T5h9fYw6Bt_OMcPzL-2462">
          <mxGeometry x="170" width="170" height="40" as="geometry">
            <mxRectangle width="170" height="40" as="alternateBounds" />
          </mxGeometry>
        </mxCell>
        <mxCell id="Jf1T5h9fYw6Bt_OMcPzL-2465" value="Outgoing Packet" style="shape=table;startSize=30;container=1;collapsible=0;childLayout=tableLayout;strokeColor=default;fontSize=16;" vertex="1" parent="1">
          <mxGeometry x="860" y="840" width="340" height="110" as="geometry" />
        </mxCell>
        <mxCell id="Jf1T5h9fYw6Bt_OMcPzL-2466" value="" style="shape=tableRow;horizontal=0;startSize=0;swimlaneHead=0;swimlaneBody=0;strokeColor=inherit;top=0;left=0;bottom=0;right=0;collapsible=0;dropTarget=0;fillColor=none;points=[[0,0.5],[1,0.5]];portConstraint=eastwest;fontSize=16;" vertex="1" parent="Jf1T5h9fYw6Bt_OMcPzL-2465">
          <mxGeometry y="30" width="340" height="40" as="geometry" />
        </mxCell>
        <mxCell id="Jf1T5h9fYw6Bt_OMcPzL-2467" value="Source IP" style="shape=partialRectangle;html=1;whiteSpace=wrap;connectable=0;strokeColor=inherit;overflow=hidden;fillColor=none;top=0;left=0;bottom=0;right=0;pointerEvents=1;fontSize=16;" vertex="1" parent="Jf1T5h9fYw6Bt_OMcPzL-2466">
          <mxGeometry width="170" height="40" as="geometry">
            <mxRectangle width="170" height="40" as="alternateBounds" />
          </mxGeometry>
        </mxCell>
        <mxCell id="Jf1T5h9fYw6Bt_OMcPzL-2468" value="50.50.50.3" style="shape=partialRectangle;html=1;whiteSpace=wrap;connectable=0;strokeColor=inherit;overflow=hidden;fillColor=none;top=0;left=0;bottom=0;right=0;pointerEvents=1;fontSize=16;" vertex="1" parent="Jf1T5h9fYw6Bt_OMcPzL-2466">
          <mxGeometry x="170" width="170" height="40" as="geometry">
            <mxRectangle width="170" height="40" as="alternateBounds" />
          </mxGeometry>
        </mxCell>
        <mxCell id="Jf1T5h9fYw6Bt_OMcPzL-2469" style="shape=tableRow;horizontal=0;startSize=0;swimlaneHead=0;swimlaneBody=0;strokeColor=inherit;top=0;left=0;bottom=0;right=0;collapsible=0;dropTarget=0;fillColor=none;points=[[0,0.5],[1,0.5]];portConstraint=eastwest;fontSize=16;" vertex="1" parent="Jf1T5h9fYw6Bt_OMcPzL-2465">
          <mxGeometry y="70" width="340" height="40" as="geometry" />
        </mxCell>
        <mxCell id="Jf1T5h9fYw6Bt_OMcPzL-2470" value="Destination IP" style="shape=partialRectangle;html=1;whiteSpace=wrap;connectable=0;strokeColor=inherit;overflow=hidden;fillColor=none;top=0;left=0;bottom=0;right=0;pointerEvents=1;fontSize=16;" vertex="1" parent="Jf1T5h9fYw6Bt_OMcPzL-2469">
          <mxGeometry width="170" height="40" as="geometry">
            <mxRectangle width="170" height="40" as="alternateBounds" />
          </mxGeometry>
        </mxCell>
        <mxCell id="Jf1T5h9fYw6Bt_OMcPzL-2471" value="203.0.113.1" style="shape=partialRectangle;html=1;whiteSpace=wrap;connectable=0;strokeColor=inherit;overflow=hidden;fillColor=none;top=0;left=0;bottom=0;right=0;pointerEvents=1;fontSize=16;" vertex="1" parent="Jf1T5h9fYw6Bt_OMcPzL-2469">
          <mxGeometry x="170" width="170" height="40" as="geometry">
            <mxRectangle width="170" height="40" as="alternateBounds" />
          </mxGeometry>
        </mxCell>
        <mxCell id="Jf1T5h9fYw6Bt_OMcPzL-2472" style="edgeStyle=orthogonalEdgeStyle;rounded=0;orthogonalLoop=1;jettySize=auto;html=1;entryX=0;entryY=0.5;entryDx=0;entryDy=0;strokeColor=#FF3333;" edge="1" parent="1" source="Jf1T5h9fYw6Bt_OMcPzL-2459" target="Jf1T5h9fYw6Bt_OMcPzL-2466">
          <mxGeometry relative="1" as="geometry" />
        </mxCell>
        <mxCell id="Jf1T5h9fYw6Bt_OMcPzL-2473" style="edgeStyle=orthogonalEdgeStyle;rounded=0;orthogonalLoop=1;jettySize=auto;html=1;strokeColor=#FF6666;" edge="1" parent="1" source="Jf1T5h9fYw6Bt_OMcPzL-2466">
          <mxGeometry relative="1" as="geometry">
            <mxPoint x="1990" y="890" as="targetPoint" />
          </mxGeometry>
        </mxCell>
        <mxCell id="Jf1T5h9fYw6Bt_OMcPzL-2474" value="Incoming Packet" style="shape=table;startSize=30;container=1;collapsible=0;childLayout=tableLayout;strokeColor=default;fontSize=16;" vertex="1" parent="1">
          <mxGeometry x="1650" y="990" width="340" height="110" as="geometry" />
        </mxCell>
        <mxCell id="Jf1T5h9fYw6Bt_OMcPzL-2475" value="" style="shape=tableRow;horizontal=0;startSize=0;swimlaneHead=0;swimlaneBody=0;strokeColor=inherit;top=0;left=0;bottom=0;right=0;collapsible=0;dropTarget=0;fillColor=none;points=[[0,0.5],[1,0.5]];portConstraint=eastwest;fontSize=16;" vertex="1" parent="Jf1T5h9fYw6Bt_OMcPzL-2474">
          <mxGeometry y="30" width="340" height="40" as="geometry" />
        </mxCell>
        <mxCell id="Jf1T5h9fYw6Bt_OMcPzL-2476" value="Source IP" style="shape=partialRectangle;html=1;whiteSpace=wrap;connectable=0;strokeColor=inherit;overflow=hidden;fillColor=none;top=0;left=0;bottom=0;right=0;pointerEvents=1;fontSize=16;" vertex="1" parent="Jf1T5h9fYw6Bt_OMcPzL-2475">
          <mxGeometry width="170" height="40" as="geometry">
            <mxRectangle width="170" height="40" as="alternateBounds" />
          </mxGeometry>
        </mxCell>
        <mxCell id="Jf1T5h9fYw6Bt_OMcPzL-2477" value="203.0.113.1" style="shape=partialRectangle;html=1;whiteSpace=wrap;connectable=0;strokeColor=inherit;overflow=hidden;fillColor=none;top=0;left=0;bottom=0;right=0;pointerEvents=1;fontSize=16;" vertex="1" parent="Jf1T5h9fYw6Bt_OMcPzL-2475">
          <mxGeometry x="170" width="170" height="40" as="geometry">
            <mxRectangle width="170" height="40" as="alternateBounds" />
          </mxGeometry>
        </mxCell>
        <mxCell id="Jf1T5h9fYw6Bt_OMcPzL-2478" style="shape=tableRow;horizontal=0;startSize=0;swimlaneHead=0;swimlaneBody=0;strokeColor=inherit;top=0;left=0;bottom=0;right=0;collapsible=0;dropTarget=0;fillColor=none;points=[[0,0.5],[1,0.5]];portConstraint=eastwest;fontSize=16;" vertex="1" parent="Jf1T5h9fYw6Bt_OMcPzL-2474">
          <mxGeometry y="70" width="340" height="40" as="geometry" />
        </mxCell>
        <mxCell id="Jf1T5h9fYw6Bt_OMcPzL-2479" value="Destination IP" style="shape=partialRectangle;html=1;whiteSpace=wrap;connectable=0;strokeColor=inherit;overflow=hidden;fillColor=none;top=0;left=0;bottom=0;right=0;pointerEvents=1;fontSize=16;" vertex="1" parent="Jf1T5h9fYw6Bt_OMcPzL-2478">
          <mxGeometry width="170" height="40" as="geometry">
            <mxRectangle width="170" height="40" as="alternateBounds" />
          </mxGeometry>
        </mxCell>
        <mxCell id="Jf1T5h9fYw6Bt_OMcPzL-2480" value="50.50.50.3" style="shape=partialRectangle;html=1;whiteSpace=wrap;connectable=0;strokeColor=inherit;overflow=hidden;fillColor=none;top=0;left=0;bottom=0;right=0;pointerEvents=1;fontSize=16;" vertex="1" parent="Jf1T5h9fYw6Bt_OMcPzL-2478">
          <mxGeometry x="170" width="170" height="40" as="geometry">
            <mxRectangle width="170" height="40" as="alternateBounds" />
          </mxGeometry>
        </mxCell>
        <mxCell id="Jf1T5h9fYw6Bt_OMcPzL-2481" value="Incoming Packet" style="shape=table;startSize=30;container=1;collapsible=0;childLayout=tableLayout;strokeColor=default;fontSize=16;" vertex="1" parent="1">
          <mxGeometry x="860" y="990" width="340" height="110" as="geometry" />
        </mxCell>
        <mxCell id="Jf1T5h9fYw6Bt_OMcPzL-2482" value="" style="shape=tableRow;horizontal=0;startSize=0;swimlaneHead=0;swimlaneBody=0;strokeColor=inherit;top=0;left=0;bottom=0;right=0;collapsible=0;dropTarget=0;fillColor=none;points=[[0,0.5],[1,0.5]];portConstraint=eastwest;fontSize=16;" vertex="1" parent="Jf1T5h9fYw6Bt_OMcPzL-2481">
          <mxGeometry y="30" width="340" height="40" as="geometry" />
        </mxCell>
        <mxCell id="Jf1T5h9fYw6Bt_OMcPzL-2483" value="Source IP" style="shape=partialRectangle;html=1;whiteSpace=wrap;connectable=0;strokeColor=inherit;overflow=hidden;fillColor=none;top=0;left=0;bottom=0;right=0;pointerEvents=1;fontSize=16;" vertex="1" parent="Jf1T5h9fYw6Bt_OMcPzL-2482">
          <mxGeometry width="170" height="40" as="geometry">
            <mxRectangle width="170" height="40" as="alternateBounds" />
          </mxGeometry>
        </mxCell>
        <mxCell id="Jf1T5h9fYw6Bt_OMcPzL-2484" value="203.0.113.1" style="shape=partialRectangle;html=1;whiteSpace=wrap;connectable=0;strokeColor=inherit;overflow=hidden;fillColor=none;top=0;left=0;bottom=0;right=0;pointerEvents=1;fontSize=16;" vertex="1" parent="Jf1T5h9fYw6Bt_OMcPzL-2482">
          <mxGeometry x="170" width="170" height="40" as="geometry">
            <mxRectangle width="170" height="40" as="alternateBounds" />
          </mxGeometry>
        </mxCell>
        <mxCell id="Jf1T5h9fYw6Bt_OMcPzL-2485" style="shape=tableRow;horizontal=0;startSize=0;swimlaneHead=0;swimlaneBody=0;strokeColor=inherit;top=0;left=0;bottom=0;right=0;collapsible=0;dropTarget=0;fillColor=none;points=[[0,0.5],[1,0.5]];portConstraint=eastwest;fontSize=16;" vertex="1" parent="Jf1T5h9fYw6Bt_OMcPzL-2481">
          <mxGeometry y="70" width="340" height="40" as="geometry" />
        </mxCell>
        <mxCell id="Jf1T5h9fYw6Bt_OMcPzL-2486" value="Destination IP" style="shape=partialRectangle;html=1;whiteSpace=wrap;connectable=0;strokeColor=inherit;overflow=hidden;fillColor=none;top=0;left=0;bottom=0;right=0;pointerEvents=1;fontSize=16;" vertex="1" parent="Jf1T5h9fYw6Bt_OMcPzL-2485">
          <mxGeometry width="170" height="40" as="geometry">
            <mxRectangle width="170" height="40" as="alternateBounds" />
          </mxGeometry>
        </mxCell>
        <mxCell id="Jf1T5h9fYw6Bt_OMcPzL-2487" value="192.168.1.5" style="shape=partialRectangle;html=1;whiteSpace=wrap;connectable=0;strokeColor=inherit;overflow=hidden;fillColor=none;top=0;left=0;bottom=0;right=0;pointerEvents=1;fontSize=16;" vertex="1" parent="Jf1T5h9fYw6Bt_OMcPzL-2485">
          <mxGeometry x="170" width="170" height="40" as="geometry">
            <mxRectangle width="170" height="40" as="alternateBounds" />
          </mxGeometry>
        </mxCell>
        <mxCell id="Jf1T5h9fYw6Bt_OMcPzL-2488" style="edgeStyle=orthogonalEdgeStyle;rounded=0;orthogonalLoop=1;jettySize=auto;html=1;entryX=1;entryY=0.5;entryDx=0;entryDy=0;strokeColor=#00CC00;" edge="1" parent="1" source="Jf1T5h9fYw6Bt_OMcPzL-2475" target="Jf1T5h9fYw6Bt_OMcPzL-2482">
          <mxGeometry relative="1" as="geometry" />
        </mxCell>
        <mxCell id="Jf1T5h9fYw6Bt_OMcPzL-2489" style="edgeStyle=orthogonalEdgeStyle;rounded=0;orthogonalLoop=1;jettySize=auto;html=1;strokeColor=#00CC00;" edge="1" parent="1" source="Jf1T5h9fYw6Bt_OMcPzL-2482">
          <mxGeometry relative="1" as="geometry">
            <mxPoint x="270.0000000000002" y="1040" as="targetPoint" />
          </mxGeometry>
        </mxCell>
        <UserObject label="Link" link="https://www.draw.io" id="Jf1T5h9fYw6Bt_OMcPzL-2490">
          <mxCell style="text;html=1;strokeColor=none;fillColor=none;whiteSpace=wrap;align=center;verticalAlign=middle;fontColor=#0000EE;fontStyle=4;" vertex="1" parent="1">
            <mxGeometry x="600" y="40" width="60" height="40" as="geometry" />
          </mxCell>
        </UserObject>
      </root>
    </mxGraphModel>
  </diagram>
</mxfile>
